<mxfile host="app.diagrams.net" modified="2022-12-20T06:01:09.840Z" agent="5.0 (Windows NT 10.0; Win64; x64) AppleWebKit/537.36 (KHTML, like Gecko) Chrome/108.0.0.0 Safari/537.36" version="20.7.4" etag="S3wKvcUMS6p-ClHUsiHr" type="github">
  <diagram id="uopNkQ2YO9Q68E_QYnqX" name="Страница 1">
    <mxGraphModel dx="1195" dy="630" grid="1" gridSize="10" guides="1" tooltips="1" connect="1" arrows="1" fold="1" page="1" pageScale="1" pageWidth="1169" pageHeight="827" math="0" shadow="0">
      <root>
        <mxCell id="0" />
        <mxCell id="1" parent="0" />
        <mxCell id="oUB9SbINNLRHmrYYQC7R-1" value="Сайт с информацией об играх" style="shape=cylinder3;whiteSpace=wrap;html=1;boundedLbl=1;backgroundOutline=1;size=15;" vertex="1" parent="1">
          <mxGeometry x="100" y="180" width="140" height="110" as="geometry" />
        </mxCell>
        <mxCell id="oUB9SbINNLRHmrYYQC7R-6" style="edgeStyle=orthogonalEdgeStyle;rounded=0;orthogonalLoop=1;jettySize=auto;html=1;entryX=0;entryY=0.5;entryDx=0;entryDy=0;" edge="1" parent="1" source="oUB9SbINNLRHmrYYQC7R-2" target="oUB9SbINNLRHmrYYQC7R-4">
          <mxGeometry relative="1" as="geometry" />
        </mxCell>
        <mxCell id="oUB9SbINNLRHmrYYQC7R-2" value="Парсим информацию" style="rhombus;whiteSpace=wrap;html=1;" vertex="1" parent="1">
          <mxGeometry x="390" y="200" width="200" height="80" as="geometry" />
        </mxCell>
        <mxCell id="oUB9SbINNLRHmrYYQC7R-3" value="" style="endArrow=classic;html=1;rounded=0;exitX=1.006;exitY=0.548;exitDx=0;exitDy=0;exitPerimeter=0;entryX=0;entryY=0.5;entryDx=0;entryDy=0;" edge="1" parent="1" source="oUB9SbINNLRHmrYYQC7R-1" target="oUB9SbINNLRHmrYYQC7R-2">
          <mxGeometry width="50" height="50" relative="1" as="geometry">
            <mxPoint x="390" y="410" as="sourcePoint" />
            <mxPoint x="440" y="360" as="targetPoint" />
          </mxGeometry>
        </mxCell>
        <mxCell id="oUB9SbINNLRHmrYYQC7R-4" value="Отображаем на SPA" style="rounded=0;whiteSpace=wrap;html=1;" vertex="1" parent="1">
          <mxGeometry x="740" y="210" width="120" height="60" as="geometry" />
        </mxCell>
        <mxCell id="oUB9SbINNLRHmrYYQC7R-7" value="Есть возможность операции CRUD по REST" style="text;html=1;strokeColor=none;fillColor=none;align=center;verticalAlign=middle;whiteSpace=wrap;rounded=0;" vertex="1" parent="1">
          <mxGeometry x="770" y="300" width="60" height="30" as="geometry" />
        </mxCell>
      </root>
    </mxGraphModel>
  </diagram>
</mxfile>
